<?xml version="1.0" encoding="UTF-8"?>
<svg version="1.1" xmlns="http://www.w3.org/2000/svg" width="500" height="500">
<path d="M0 0 C165 0 330 0 500 0 C500 165 500 330 500 500 C335 500 170 500 0 500 C0 335 0 170 0 0 Z " fill="#FEFEFE" transform="translate(0,0)"/>
<path d="M0 0 C15.53270542 12.56861144 26.26088369 29.7396339 29.16113281 49.63818359 C31.21561934 70.51043815 24.97069077 89.24110528 12.16113281 105.63818359 C0.61877216 119.46744187 -17.17879263 129.1535293 -35.17456055 130.85961914 C-55.04440764 131.82541438 -73.50037181 127.93185365 -88.79589844 114.55761719 C-91.22363775 112.32425068 -93.53239432 109.9970763 -95.83886719 107.63818359 C-96.50402344 107.00525391 -97.16917969 106.37232422 -97.85449219 105.72021484 C-109.9404789 93.38924191 -115.15772967 74.74679056 -115.27636719 57.95068359 C-115.02520365 40.24679341 -108.86571235 23.84463404 -96.83886719 10.63818359 C-96.16210938 9.88150391 -95.48535156 9.12482422 -94.78808594 8.34521484 C-70.28779167 -17.63467091 -28.77131185 -21.30727264 0 0 Z " fill="#AA996F" transform="translate(292.8388671875,191.36181640625)"/>
<path d="M0 0 C0.70343536 0.00182281 1.40687073 0.00364563 2.13162231 0.00552368 C12.79640912 0.05199961 22.88151272 0.61952801 33.25 3.3125 C33.9188623 3.47347168 34.58772461 3.63444336 35.27685547 3.80029297 C59.70848408 9.7301893 80.62269651 22.59007447 98.25 40.3125 C99.13300781 41.19550781 100.01601563 42.07851562 100.92578125 42.98828125 C110.57678896 53.11958794 120.0258511 66.24269788 125.25 79.3125 C124.81762695 81.48168945 124.81762695 81.48168945 124.25 83.3125 C123.6108667 83.28518799 122.9717334 83.25787598 122.31323242 83.22973633 C109.25977958 82.28205536 109.25977958 82.28205536 97.484375 86.65234375 C94.73781404 89.27050582 92.49900707 92.26182375 90.25 95.3125 C88.31693993 97.24959569 86.49791737 98.73895784 84.25 100.3125 C80.10001436 98.92917145 79.79771649 96.97162378 77.8125 93.125 C67.1532571 73.59607733 49.48283283 58.50232304 28.07421875 51.96484375 C24.49266319 50.95659431 20.88754832 50.09672175 17.25 49.3125 C16.48429688 49.12171875 15.71859375 48.9309375 14.9296875 48.734375 C-7.73551595 45.16609224 -31.25540515 50.93558756 -49.75 64.3125 C-62.96672932 74.16185782 -71.88785628 85.86385839 -79.75 100.3125 C-82.77624214 98.98540011 -84.54210868 97.64886196 -86.61328125 95.08984375 C-91.98357288 88.98562018 -96.47342415 84.21036805 -104.8515625 83.16796875 C-110.4939934 82.82430487 -116.11247459 82.92015821 -121.75 83.3125 C-122.55419632 81.00083736 -122.89938865 79.7451207 -122.08837891 77.39648438 C-121.72147949 76.73970703 -121.35458008 76.08292969 -120.9765625 75.40625 C-120.36445923 74.29926758 -120.36445923 74.29926758 -119.73999023 73.16992188 C-119.28954346 72.39197266 -118.83909668 71.61402344 -118.375 70.8125 C-117.91746338 70.00876953 -117.45992676 69.20503906 -116.98852539 68.37695312 C-110.77816878 57.66507962 -103.23644857 48.31949281 -94.75 39.3125 C-94.20085937 38.71050781 -93.65171875 38.10851562 -93.0859375 37.48828125 C-69.48750437 12.55299107 -33.67154936 -0.18167476 0 0 Z " fill="#4E4E4E" transform="translate(248.75,114.6875)"/>
<path d="M0 0 C2.92750236 1.03472066 3.89909985 1.82867995 5.5 4.546875 C5.995 5.60390625 6.49 6.6609375 7 7.75 C13.60949156 20.48983021 23.07365714 30.10900876 35 38 C35.79664063 38.55042969 36.59328125 39.10085938 37.4140625 39.66796875 C55.26424285 51.27954092 76.90048914 54.27993478 97.75 51.5 C100.90475251 50.81956318 103.92606109 49.98112851 107 49 C108.70349609 48.48953125 108.70349609 48.48953125 110.44140625 47.96875 C133.36716307 40.51976645 151.20169861 24.16907371 162.07421875 2.9140625 C162.37972656 2.28242188 162.68523437 1.65078125 163 1 C167.50024988 1 167.50024988 1 170.12890625 3.51953125 C170.68900391 4.04740234 171.24910156 4.57527344 171.82617188 5.11914062 C172.39916016 5.67794922 172.97214844 6.23675781 173.5625 6.8125 C174.13935547 7.35970703 174.71621094 7.90691406 175.31054688 8.47070312 C179.74891537 12.69406415 179.74891537 12.69406415 181.35449219 14.65039062 C183.66528722 16.54565397 185.36315875 16.42992151 188.32421875 16.51171875 C189.86625977 16.56489258 189.86625977 16.56489258 191.43945312 16.61914062 C193.04723633 16.65297852 193.04723633 16.65297852 194.6875 16.6875 C196.31268555 16.73874023 196.31268555 16.73874023 197.97070312 16.79101562 C200.6470322 16.8735456 203.32303159 16.94267937 206 17 C207 20 207 20 206.35424805 21.87841797 C205.99371338 22.57596191 205.63317871 23.27350586 205.26171875 23.9921875 C204.85904785 24.77319824 204.45637695 25.55420898 204.04150391 26.35888672 C203.59468262 27.1892041 203.14786133 28.01952148 202.6875 28.875 C202.23036621 29.72980957 201.77323242 30.58461914 201.30224609 31.46533203 C197.21401812 38.92512091 192.57958534 45.56186005 187 52 C186.53335938 52.54350098 186.06671875 53.08700195 185.5859375 53.64697266 C166.67640943 75.45739424 142.95767209 90.04811563 115 97 C113.76894531 97.32097656 112.53789062 97.64195312 111.26953125 97.97265625 C76.75680182 105.53660816 39.99433337 98.56735713 10.24072266 79.89599609 C-11.44024313 65.86287168 -31.65624692 44.41432257 -41 20 C-40.505 18.515 -40.505 18.515 -40 17 C-39.33991943 17.00636475 -38.67983887 17.01272949 -37.99975586 17.01928711 C-34.97788189 17.02802927 -31.95902143 16.98319754 -28.9375 16.9375 C-27.37999023 16.95393555 -27.37999023 16.95393555 -25.79101562 16.97070312 C-20.39478842 16.85078696 -16.93099968 16.61660226 -13.0234375 12.6796875 C-12.00038378 11.46580831 -10.99075938 10.24037794 -10 9 C-8.5791059 7.71062668 -7.14531901 6.43497238 -5.6875 5.1875 C-3.72202244 3.50004677 -1.83268657 1.83268657 0 0 Z " fill="#4F4F4F" transform="translate(167,285)"/>
<path d="M0 0 C15.53270542 12.56861144 26.26088369 29.7396339 29.16113281 49.63818359 C31.21561934 70.51043815 24.97069077 89.24110528 12.16113281 105.63818359 C0.61877216 119.46744187 -17.17879263 129.1535293 -35.17456055 130.85961914 C-55.04440764 131.82541438 -73.50037181 127.93185365 -88.79589844 114.55761719 C-91.22363775 112.32425068 -93.53239432 109.9970763 -95.83886719 107.63818359 C-96.50402344 107.00525391 -97.16917969 106.37232422 -97.85449219 105.72021484 C-109.9404789 93.38924191 -115.15772967 74.74679056 -115.27636719 57.95068359 C-115.02520365 40.24679341 -108.86571235 23.84463404 -96.83886719 10.63818359 C-96.16210938 9.88150391 -95.48535156 9.12482422 -94.78808594 8.34521484 C-70.28779167 -17.63467091 -28.77131185 -21.30727264 0 0 Z M-88.79980469 20.79052734 C-97.39328855 31.1665024 -102.24124748 42.80682044 -102.15136719 56.26318359 C-102.14572754 57.14619141 -102.14008789 58.02919922 -102.13427734 58.93896484 C-101.83321236 75.27397571 -96.35917556 89.82744728 -84.83886719 101.63818359 C-70.00641308 114.6243602 -55.21951911 118.61330614 -35.95996094 117.78613281 C-19.17781876 116.61555522 -7.13866024 107.37236189 4.00097656 95.71240234 C15.22314541 82.28747356 17.33522896 65.43703603 16.16113281 48.63818359 C13.31214628 32.43966016 3.63923128 18.83361215 -9.46386719 9.16552734 C-13.71076221 6.43438269 -18.12953095 4.43629379 -22.83886719 2.63818359 C-23.66773438 2.31720703 -24.49660156 1.99623047 -25.35058594 1.66552734 C-48.83525011 -6.06678934 -72.6886663 3.1067878 -88.79980469 20.79052734 Z " fill="#505050" transform="translate(292.8388671875,191.36181640625)"/>
<path d="M0 0 C19.14 0 38.28 0 58 0 C57.34 4.62 56.68 9.24 56 14 C55.82826496 17.55845095 55.71674792 21.01284055 55.75 24.5625 C55.74226563 25.39201172 55.73453125 26.22152344 55.7265625 27.07617188 C55.74884693 34.35760802 56.86078147 40.59507955 58 48 C38.86 48 19.72 48 0 48 C0.7976364 40.82127243 1.92004388 35.71546228 4.2578125 29.11328125 C5.78570147 22.70418909 3.02961382 15.99404522 1.37304688 9.74609375 C0.49580601 6.34638375 0 3.53905976 0 0 Z " fill="#4E4E4E" transform="translate(117,226)"/>
<path d="M0 0 C19.14 0 38.28 0 58 0 C57.15626317 6.74989466 55.80387863 12.24867928 53.7421875 18.6328125 C52.21978578 25.53970872 55.13065081 31.97563538 57.16015625 38.5625 C58 42 58 42 58 48 C38.86 48 19.72 48 0 48 C0.66 44.04 1.32 40.08 2 36 C2.17849468 31.9681201 2.28145366 28.0260689 2.25 24 C2.25773437 23.01 2.26546875 22.02 2.2734375 21 C2.25424457 13.6299142 1.24169563 7.45017377 0 0 Z " fill="#4E4E4E" transform="translate(325,226)"/>
<path d="M0 0 C13.4782581 8.51066162 22.80594464 21.70016915 26.99609375 37.0703125 C29.27445188 50.62725097 28.61380853 63.33719801 22.625 75.8125 C22.25246094 76.6375 21.87992187 77.4625 21.49609375 78.3125 C14.53991253 92.27333757 1.3963819 102.52102988 -13.04296875 107.78515625 C-27.84695067 112.17530261 -45.30293541 111.17773772 -59.0625 104.125 C-74.67506494 94.85716392 -85.14042895 82.06476368 -89.6875 64.3125 C-92.56263512 46.83618847 -90.50703252 31.22044345 -80.3671875 16.40234375 C-71.1161993 4.37605909 -59.25753438 -3.81524034 -44.375 -7.1875 C-43.74964355 -7.35660889 -43.12428711 -7.52571777 -42.47998047 -7.69995117 C-27.87692014 -11.08226519 -12.84368527 -6.91331018 0 0 Z M-74.37890625 16.00390625 C-84.19090197 27.85035464 -87.58376474 41.5520559 -86.61328125 56.67773438 C-84.93988818 71.6696903 -77.03176168 85.36620572 -65.375 94.8125 C-51.69011366 104.2611942 -37.04601788 107.96824526 -20.40234375 105.34375 C-4.83573598 101.58088654 7.62643771 92.56905075 16.1875 79.1875 C23.19653819 66.91441238 26.08317839 52.71665278 22.75390625 38.734375 C18.21504915 22.15879153 8.96037711 10.26200699 -5.89453125 1.578125 C-30.39428212 -10.85048038 -56.34350829 -3.71901433 -74.37890625 16.00390625 Z " fill="#F8F7F6" transform="translate(281.375,199.1875)"/>
<path d="M0 0 C1.32 0 2.64 0 4 0 C4.63615234 1.35931641 4.63615234 1.35931641 5.28515625 2.74609375 C8.8271387 10.16588351 12.47889401 16.82798467 18 23 C18.64324219 23.73605469 19.28648437 24.47210938 19.94921875 25.23046875 C33.16296569 39.42120252 51.72118674 47.71673534 71 49 C71.95648438 49.06574219 72.91296875 49.13148438 73.8984375 49.19921875 C93.01199309 49.88353123 112.89780379 42.16889622 127.1875 29.625 C128.80802796 28.10054078 130.41340725 26.55974685 132 25 C132.62777344 24.38511719 133.25554687 23.77023437 133.90234375 23.13671875 C139.88243766 16.80405695 145.24038317 8.27885049 148 0 C149.32 0 150.64 0 152 0 C147.19881537 18.56458056 132.82156269 33.40768345 116.71484375 42.9453125 C113.20749708 44.80569615 109.66415845 46.47883063 106 48 C105.38092773 48.2582959 104.76185547 48.5165918 104.12402344 48.78271484 C85.15216203 56.32206865 62.56386187 55.27562992 43.9296875 47.3046875 C23.83066791 38.15969302 9.03702075 23.24292647 0 3 C0 2.01 0 1.02 0 0 Z " fill="#BBAB6B" transform="translate(174,278)"/>
<path d="M0 0 C1.19882813 -0.01611328 2.39765625 -0.03222656 3.6328125 -0.04882812 C11.60421387 -0.05315101 18.63803283 0.95813042 26.25 3.3125 C27.29704102 3.63311401 27.29704102 3.63311401 28.36523438 3.96020508 C48.61603546 10.61136104 63.81313333 24.99209816 74.25 43.3125 C75.81213424 46.58936771 77.15861637 49.85102208 78.25 53.3125 C75.984375 53.2421875 75.984375 53.2421875 73.25 52.3125 C71.76687885 50.003413 70.63497827 47.90765867 69.5 45.4375 C59.98200792 26.33798692 44.24678835 14.55035039 24.4375 7.4375 C23.04966388 7.03390788 21.65324045 6.65875414 20.25 6.3125 C19.46238281 6.11011719 18.67476563 5.90773437 17.86328125 5.69921875 C-3.55887435 0.99210833 -24.29884452 5.90959613 -42.75 17.3125 C-56.07237967 26.88258152 -64.61965822 38.65568633 -71.75 53.3125 C-73.07 52.9825 -74.39 52.6525 -75.75 52.3125 C-71.30665484 42.78766969 -66.92032828 34.12719812 -59.75 26.3125 C-59.08613281 25.55710938 -58.42226562 24.80171875 -57.73828125 24.0234375 C-42.65764878 7.79991052 -21.81372733 -0.05789206 0 0 Z " fill="#BBAB6C" transform="translate(248.75,168.6875)"/>
<path d="M0 0 C3.85343458 3.85343458 3.15883581 9.74928204 3.1875 14.9375 C3.14444266 20.03441262 3.02655977 24.30691423 1 29 C-2.13534719 31.09023146 -3.16129003 31.31948959 -6.76171875 30.671875 C-12.56595918 28.92958992 -19.11192714 26.5012931 -22.828125 21.578125 C-24.62687414 17.62087689 -24.7782011 14.25676003 -24 10 C-19.39316024 2.92521037 -8.27624335 -2.87869334 0 0 Z " fill="#FDFCFB" transform="translate(298,235)"/>
<path d="M0 0 C2.74793441 1.93098094 3.78534776 3.28449253 4.75 6.5 C4.87375 8.2325 4.87375 8.2325 5 10 C5.08636719 10.92683594 5.17273438 11.85367188 5.26171875 12.80859375 C5.5634073 18.17864987 5.71738661 21.95704959 2.125 26.1875 C-0.52324231 28.81655215 -2.2371554 29.88875183 -6 30.4375 C-12.74230957 30.33896938 -18.81793715 25.28068548 -23.6875 21 C-26 18 -26 18 -25.9609375 15.0703125 C-23.86572237 8.37584463 -15.59467391 4.72833923 -9.6875 1.5 C-6.01474092 0.00599631 -3.89109667 -0.70747212 0 0 Z " fill="#FDFCFB" transform="translate(239,201)"/>
<path d="M0 0 C4.78609221 1.74876446 6.78905248 3.45030452 9 8 C9.98460791 15.53900764 9.22479876 22.14730264 6 29 C0.29182958 30.30660167 -3.11817406 29.58000928 -8.125 26.8125 C-8.71925781 26.50763672 -9.31351563 26.20277344 -9.92578125 25.88867188 C-14.85791827 23.29195073 -18.89044326 20.66433511 -22 16 C-21.99609375 13.11328125 -21.99609375 13.11328125 -21 10 C-19.01570575 8.11506658 -17.29460779 6.69371908 -15.0625 5.1875 C-14.51142578 4.79369141 -13.96035156 4.39988281 -13.39257812 3.99414062 C-8.54310682 0.55885294 -6.02576977 -0.40171798 0 0 Z " fill="#FDFCFB" transform="translate(235,269)"/>
<path d="M0 0 C7.36898718 0 13.91927394 2.92816566 20 7 C22.67922526 10.60863531 23.62196794 13.44184831 23.3984375 18.015625 C22.67561396 21.6155697 20.77936975 23.79888839 18 26 C12.16622861 29.70239351 6.88463623 31.61752021 0 32 C-4.26579517 26.80685805 -4.18190267 22.11697513 -4.1875 15.5625 C-4.20586914 14.43618164 -4.20586914 14.43618164 -4.22460938 13.28710938 C-4.23568956 9.0877182 -4.0206399 5.79313103 -2 2 C-1.34 1.34 -0.68 0.68 0 0 Z " fill="#FDFDFC" transform="translate(203,234)"/>
<path d="M0 0 C6.60442695 2.85849314 12.57431423 6.25856982 17 12 C17.40234375 14.92578125 17.40234375 14.92578125 17 18 C12.91656136 23.18142992 6.62359017 28.19270648 0.03125 29.34375 C-3.96814557 29.64221236 -5.7408918 29.20841312 -8.875 26.6875 C-13.9641431 20.25123078 -13.60490634 15.0262946 -13 7 C-12.30599382 4.20158797 -11.5078395 2.49373455 -10 0 C-6.65825871 -1.67087065 -3.4793415 -0.91058695 0 0 Z " fill="#FDFDFC" transform="translate(269,202)"/>
<path d="M0 0 C11.6227954 6.7280765 11.6227954 6.7280765 13.3125 12.70703125 C11.80504061 18.504952 6.92589097 21.3644238 1.98828125 24.3515625 C-2.75736486 26.87336832 -7.07104036 28.94061044 -12.5 28.83203125 C-15.19334501 26.98921624 -16.26223031 25.74959884 -17.08203125 22.5859375 C-19.20253063 8.61442291 -19.20253063 8.61442291 -15.75 3.14453125 C-11.1538335 -1.57930654 -6.28927476 -2.93827055 0 0 Z " fill="#FDFDFC" transform="translate(273.5,270.16796875)"/>
<path d="M0 0 C4.14623807 1.79042098 6.17613802 3.87231236 8 8 C8.5931368 11.98248997 8.17424115 13.67640929 6.25 17.25 C3.2772789 20.88332579 1.72224085 21.77535989 -2.875 22.375 C-6.87153796 21.89541545 -8.90459308 20.53260567 -12 18 C-14.59107284 14.58449489 -14.50288306 11.16674536 -14 7 C-10.34169871 0.9073644 -6.9578198 -0.4717166 0 0 Z " fill="#FBFBF9" transform="translate(253,239)"/>
<path d="M0 0 C1.625 1.8125 1.625 1.8125 1.875 4.3125 C1.7925 5.1375 1.71 5.9625 1.625 6.8125 C1.625 10.42279169 2.58592582 13.37056676 3.625 16.8125 C1.975 16.4825 0.325 16.1525 -1.375 15.8125 C-1.705 14.1625 -2.035 12.5125 -2.375 10.8125 C-4.025 10.4825 -5.675 10.1525 -7.375 9.8125 C-6.715 12.4525 -6.055 15.0925 -5.375 17.8125 C-7.685 17.8125 -9.995 17.8125 -12.375 17.8125 C-12.045 12.5325 -11.715 7.2525 -11.375 1.8125 C-12.035 1.8125 -12.695 1.8125 -13.375 1.8125 C-13.375 1.1525 -13.375 0.4925 -13.375 -0.1875 C-8.72470374 -1.28168735 -4.40951766 -2.20475883 0 0 Z " fill="#F2F2F2" transform="translate(246.375,128.1875)"/>
<path d="M0 0 C1.6065676 0.25620684 3.2102483 0.53055871 4.8125 0.8125 C6.15248047 1.03873047 6.15248047 1.03873047 7.51953125 1.26953125 C10.22819466 2.06720063 11.32790536 2.75056975 13 5 C13.63916131 10.1132905 13.63916131 10.1132905 11.76953125 12.70703125 C10 14 10 14 7.73828125 14.07421875 C6.93777344 13.94660156 6.13726562 13.81898438 5.3125 13.6875 C4.10013672 13.50767578 4.10013672 13.50767578 2.86328125 13.32421875 C2.24839844 13.21722656 1.63351562 13.11023438 1 13 C1.33 14.98 1.66 16.96 2 19 C0.02 18.67 -1.96 18.34 -4 18 C-4.33 17.01 -4.66 16.02 -5 15 C-4.34 15 -3.68 15 -3 15 C-2.49733206 12.87562952 -1.9979439 10.75048274 -1.5 8.625 C-1.2215625 7.44164062 -0.943125 6.25828125 -0.65625 5.0390625 C0.07035776 2.19236158 0.07035776 2.19236158 0 0 Z " fill="#F2F2F2" transform="translate(280,131)"/>
<path d="M0 0 C2.0625 0.875 2.0625 0.875 3.0625 1.875 C3.10313832 3.54117115 3.105221 5.20888095 3.0625 6.875 C4.3825 7.205 5.7025 7.535 7.0625 7.875 C7.0625 8.535 7.0625 9.195 7.0625 9.875 C8.0525 9.875 9.0425 9.875 10.0625 9.875 C9.7325 10.865 9.4025 11.855 9.0625 12.875 C6.12167877 12.24482402 3.74218527 11.21484264 1.0625 9.875 C0.4025 9.875 -0.2575 9.875 -0.9375 9.875 C-0.6075 10.865 -0.2775 11.855 0.0625 12.875 C1.0525 13.205 2.0425 13.535 3.0625 13.875 C3.0625 14.865 3.0625 15.855 3.0625 16.875 C0.0625 18.875 0.0625 18.875 -2.9375 18.875 C-3.02 18.359375 -3.1025 17.84375 -3.1875 17.3125 C-4.28097683 13.75870031 -5.92386976 11.01389419 -7.9375 7.875 C-8.9275 7.545 -9.9175 7.215 -10.9375 6.875 C-10.9375 6.215 -10.9375 5.555 -10.9375 4.875 C-7.60134227 2.06865392 -4.42318303 -0.18822055 0 0 Z " fill="#F0F0F0" transform="translate(311.9375,334.125)"/>
<path d="M0 0 C3.48608894 1.07556283 6.80290547 2.228051 10 4 C11.3125 7.0625 11.3125 7.0625 11 10 C10.525625 10.45375 10.05125 10.9075 9.5625 11.375 C7.56494941 13.45245261 7.79273027 14.36537174 7.8125 17.1875 C7.874375 18.445625 7.93625 19.70375 8 21 C6.68 20.67 5.36 20.34 4 20 C4 17.69 4 15.38 4 13 C3.01 13 2.02 13 1 13 C0.67 14.65 0.34 16.3 0 18 C-1.98 17.34 -3.96 16.68 -6 16 C-6 15.34 -6 14.68 -6 14 C-5.01 14 -4.02 14 -3 14 C-2.87625 13.29875 -2.7525 12.5975 -2.625 11.875 C-2 9 -2 9 -0.9375 5.875 C0.1550103 3.02863385 0.1550103 3.02863385 0 0 Z " fill="#F1F1F1" transform="translate(204,342)"/>
<path d="M0 0 C-0.309375 0.721875 -0.61875 1.44375 -0.9375 2.1875 C-1.92560539 4.80307309 -2.5287754 7.25118982 -3 10 C-2.01 10.61875 -1.02 11.2375 0 11.875 C0.99 12.57625 1.98 13.2775 3 14 C3 14.66 3 15.32 3 16 C1.02 16.33 -0.96 16.66 -3 17 C-3.45375 16.195625 -3.9075 15.39125 -4.375 14.5625 C-5.74725665 11.91143428 -5.74725665 11.91143428 -8 11 C-8 12.65 -8 14.3 -8 16 C-7.01 16 -6.02 16 -5 16 C-5 16.66 -5 17.32 -5 18 C-7.31 18.33 -9.62 18.66 -12 19 C-12.33 14.38 -12.66 9.76 -13 5 C-13.66 5 -14.32 5 -15 5 C-15 4.34 -15 3.68 -15 3 C-11.535 2.505 -11.535 2.505 -8 2 C-8.33 3.98 -8.66 5.96 -9 8 C-8.34 8 -7.68 8 -7 8 C-6.67 5.69 -6.34 3.38 -6 1 C-3.92446352 0.4465236 -2.15634036 0 0 0 Z " fill="#EFEFEF" transform="translate(278,349)"/>
<path d="M0 0 C1.65 0 3.3 0 5 0 C5.66 5.61 6.32 11.22 7 17 C5.35 17 3.7 17 2 17 C2.33 15.35 2.66 13.7 3 12 C1.02 12 -0.96 12 -3 12 C-3 12.99 -3 13.98 -3 15 C-4.65 15 -6.3 15 -8 15 C-6.38102741 11.69918209 -4.64075691 8.47442567 -2.875 5.25 C-2.33617187 4.26515625 -1.79734375 3.2803125 -1.2421875 2.265625 C-0.83226562 1.51796875 -0.42234375 0.7703125 0 0 Z " fill="#EFEFEF" transform="translate(228,351)"/>
<path d="M0 0 C2 2 2 2 2 5 C0.35 5 -1.3 5 -3 5 C-2.67 6.2375 -2.34 7.475 -2 8.75 C-1.20108841 11.74591845 -1 13.80107719 -1 17 C-0.01 17 0.98 17 2 17 C1.67 17.99 1.34 18.98 1 20 C-0.98 20.33 -2.96 20.66 -5 21 C-5.185625 19.205625 -5.185625 19.205625 -5.375 17.375 C-5.82325054 13.72403187 -6.70446837 10.45475101 -8 7 C-8.66 7 -9.32 7 -10 7 C-10.33 7.99 -10.66 8.98 -11 10 C-11.99 10 -12.98 10 -14 10 C-14.33 8.35 -14.66 6.7 -15 5 C-10.05 3.35 -5.1 1.7 0 0 Z " fill="#F0F0F0" transform="translate(220,130)"/>
<path d="M0 0 C0.33 1.32 0.66 2.64 1 4 C-1.64 4 -4.28 4 -7 4 C-6.67 4.99 -6.34 5.98 -6 7 C-4.02 7 -2.04 7 0 7 C0.33 7.66 0.66 8.32 1 9 C-0.98 9.99 -0.98 9.99 -3 11 C-3 12.32 -3 13.64 -3 15 C-1.35 14.67 0.3 14.34 2 14 C2 13.01 2 12.02 2 11 C2.99 11.33 3.98 11.66 5 12 C5.33 12.99 5.66 13.98 6 15 C4.58774074 15.67595315 3.16997095 16.34040059 1.75 17 C0.56664062 17.556875 0.56664062 17.556875 -0.640625 18.125 C-3 19 -3 19 -7 19 C-7.12375 17.948125 -7.2475 16.89625 -7.375 15.8125 C-7.91457179 12.52111209 -8.51730674 9.96538652 -10 7 C-10.66 6.67 -11.32 6.34 -12 6 C-11 3 -11 3 -7.6875 1.3125 C-4 0 -4 0 0 0 Z " fill="#F0F0F0" transform="translate(296,343)"/>
<path d="M0 0 C3 0.125 3 0.125 4 1.125 C4.0989294 3.28980797 4.129711 5.45793785 4.125 7.625 C4.12757813 8.8109375 4.13015625 9.996875 4.1328125 11.21875 C4 14.125 4 14.125 3 15.125 C0 15.25 0 15.25 -3 15.125 C-4 14.125 -4 14.125 -4.1328125 11.21875 C-4.13023437 10.0328125 -4.12765625 8.846875 -4.125 7.625 C-4.12757813 6.4390625 -4.13015625 5.253125 -4.1328125 4.03125 C-3.95612165 0.1648384 -3.95612165 0.1648384 0 0 Z " fill="#B4B4B4" transform="translate(153,240.875)"/>
<path d="M0 0 C4.67105792 1.55701931 8.08705685 4.08447373 12 7 C11.67 8.32 11.34 9.64 11 11 C10.01 10.67 9.02 10.34 8 10 C8 9.34 8 8.68 8 8 C7.34 8 6.68 8 6 8 C4.63592781 9.41382192 4.63592781 9.41382192 3.375 11.25 C2.70597656 12.15492188 2.70597656 12.15492188 2.0234375 13.078125 C0.68664703 15.22553546 0.68664703 15.22553546 1 19 C-1.4375 18.1875 -1.4375 18.1875 -4 17 C-4.33 16.01 -4.66 15.02 -5 14 C-4.01 14 -3.02 14 -2 14 C-1.71125 13.278125 -1.4225 12.55625 -1.125 11.8125 C-0.08333333 9.20833333 0.95833333 6.60416667 2 4 C0.68 4 -0.64 4 -2 4 C-1.34 2.68 -0.68 1.36 0 0 Z " fill="#EDEDED" transform="translate(187,332)"/>
<path d="M0 0 C2.5 0.125 2.5 0.125 3.5 1.125 C3.5989294 3.28980797 3.629711 5.45793785 3.625 7.625 C3.62757813 8.8109375 3.63015625 9.996875 3.6328125 11.21875 C3.5 14.125 3.5 14.125 2.5 15.125 C0 15.25 0 15.25 -2.5 15.125 C-3.5 14.125 -3.5 14.125 -3.6328125 11.21875 C-3.63023437 10.0328125 -3.62765625 8.846875 -3.625 7.625 C-3.62757813 6.4390625 -3.63015625 5.253125 -3.6328125 4.03125 C-3.4564866 0.17282433 -3.4564866 0.17282433 0 0 Z " fill="#F9F9F9" transform="translate(358.5,240.875)"/>
<path d="M0 0 C0.99 0.66 1.98 1.32 3 2 C3 3.32 3 4.64 3 6 C2.34 6 1.68 6 1 6 C0.67 5.34 0.34 4.68 0 4 C-1.66611905 3.957279 -3.33382885 3.95936168 -5 4 C-6.39681568 5.16983444 -6.39681568 5.16983444 -6.125 8.4375 C-6.2526281 11.84105584 -6.2526281 11.84105584 -5 14 C-3.02 14 -1.04 14 1 14 C1 13.34 1 12.68 1 12 C1.66 12 2.32 12 3 12 C3 13.32 3 14.64 3 16 C-0.20229442 17.60114721 -3.52500237 17.48323075 -7 17 C-9 15.5625 -9 15.5625 -10 13 C-10.50246613 9.88813589 -10.60897393 7.1017831 -10 4 C-7.00260322 0.48876377 -4.59345372 -0.72528217 0 0 Z " fill="#F5F5F5" transform="translate(254,352)"/>
<path d="M0 0 C2.31 0 4.62 0 7 0 C7 0.99 7 1.98 7 3 C6.34 3 5.68 3 5 3 C5 7.95 5 12.9 5 18 C2.69 18 0.38 18 -2 18 C-2 17.34 -2 16.68 -2 16 C-1.34 16 -0.68 16 0 16 C0 10.72 0 5.44 0 0 Z " fill="#F2F2F2" transform="translate(261,128)"/>
<path d="M0 0 C1.99954746 -0.04254356 4.00041636 -0.04080783 6 0 C7 1 7 1 7.0625 4.5625 C7.041875 5.696875 7.02125 6.83125 7 8 C6.360625 8.268125 5.72125 8.53625 5.0625 8.8125 C2.66868314 9.88667752 2.66868314 9.88667752 2 13 C3.65 12.34 5.3 11.68 7 11 C7 12.32 7 13.64 7 15 C4.36 15 1.72 15 -1 15 C-1.25 12.1875 -1.25 12.1875 -1 9 C0.9375 7.3125 0.9375 7.3125 3 6 C3.33 5.01 3.66 4.02 4 3 C3.34 3 2.68 3 2 3 C2 3.66 2 4.32 2 5 C1.34 5 0.68 5 0 5 C0 3.35 0 1.7 0 0 Z " fill="#E7E7E7" transform="translate(344,241)"/>
<path d="M0 0 C1.66611905 -0.042721 3.33382885 -0.04063832 5 0 C6 1 6 1 6.3125 4.3125 C6 8 6 8 4 10.4375 C3.01 11.2109375 3.01 11.2109375 2 12 C3.32 11.67 4.64 11.34 6 11 C6 12.32 6 13.64 6 15 C3.69 15 1.38 15 -1 15 C-1 12.69 -1 10.38 -1 8 C-0.360625 7.731875 0.27875 7.46375 0.9375 7.1875 C3.33131686 6.11332248 3.33131686 6.11332248 4 3 C3.01 3 2.02 3 1 3 C1 3.66 1 4.32 1 5 C0.34 5 -0.32 5 -1 5 C-0.67 3.35 -0.34 1.7 0 0 Z " fill="#F2F2F2" transform="translate(139,241)"/>
<path d="M0 0 C2 3 2 3 1.625 5.6875 C1.41875 6.450625 1.2125 7.21375 1 8 C-0.65 8 -2.3 8 -4 8 C-4 8.99 -4 9.98 -4 11 C-5.65 11 -7.3 11 -9 11 C-8.33333333 9.66666667 -7.66666667 8.33333333 -7 7 C-6.731875 6.319375 -6.46375 5.63875 -6.1875 4.9375 C-4.60352004 2.35311165 -2.64514545 1.39218181 0 0 Z " fill="#D3D3D3" transform="translate(229,355)"/>
<path d="M0 0 C1 1 1 1 1.0625 3.5625 C1.041875 4.366875 1.02125 5.17125 1 6 C0.01 6 -0.98 6 -2 6 C-4.15028304 6.94978897 -4.15028304 6.94978897 -6 8 C-8 5 -8 5 -7.75 2.375 C-7.5025 1.59125 -7.255 0.8075 -7 0 C-4.31633121 -1.3418344 -2.84719317 -0.73004953 0 0 Z " fill="#EAEAEA" transform="translate(314,335)"/>
<path d="M0 0 C0.66 0.33 1.32 0.66 2 1 C1.67 2.32 1.34 3.64 1 5 C2.32 4.67 3.64 4.34 5 4 C5 5.32 5 6.64 5 8 C2.69 8 0.38 8 -2 8 C-2 5.69 -2 3.38 -2 1 C-1.34 0.67 -0.68 0.34 0 0 Z " fill="#ECECEC" transform="translate(140,248)"/>
<path d="M0 0 C1.65 0.33 3.3 0.66 5 1 C5.625 2.875 5.625 2.875 6 5 C5.34 5.66 4.68 6.32 4 7 C1.375 6.625 1.375 6.625 -1 6 C-0.67 4.02 -0.34 2.04 0 0 Z " fill="#606060" transform="translate(284,135)"/>
<path d="M0 0 C0.33 0 0.66 0 1 0 C1.33 2.97 1.66 5.94 2 9 C2.66 9 3.32 9 4 9 C4.33 6.36 4.66 3.72 5 1 C5.33 1 5.66 1 6 1 C6 4.63 6 8.26 6 12 C4.02 12 2.04 12 0 12 C0 8.04 0 4.08 0 0 Z " fill="#F9F9F9" transform="translate(150,244)"/>
<path d="M0 0 C1.65 0.33 3.3 0.66 5 1 C4.67 2.65 4.34 4.3 4 6 C2.35 5.67 0.7 5.34 -1 5 C-0.67 3.35 -0.34 1.7 0 0 Z " fill="#BFB074" transform="translate(353,285)"/>
<path d="M0 0 C1.65 0.33 3.3 0.66 5 1 C4.67 2.65 4.34 4.3 4 6 C2.35 5.67 0.7 5.34 -1 5 C-0.67 3.35 -0.34 1.7 0 0 Z " fill="#BFB073" transform="translate(143,285)"/>
<path d="M0 0 C1.65 0 3.3 0 5 0 C5.33 1.65 5.66 3.3 6 5 C4.35 5.33 2.7 5.66 1 6 C0.67 4.02 0.34 2.04 0 0 Z " fill="#6F6F6F" transform="translate(238,130)"/>
<path d="M0 0 C0.99 0 1.98 0 3 0 C3 3.3 3 6.6 3 10 C2.01 10 1.02 10 0 10 C0 6.7 0 3.4 0 0 Z " fill="#6D6D6D" transform="translate(357,244)"/>
<path d="M0 0 C2.0625 0.4375 2.0625 0.4375 4 1 C3.67 2.65 3.34 4.3 3 6 C1.35 5.67 -0.3 5.34 -2 5 C-1.125 1.125 -1.125 1.125 0 0 Z " fill="#BCAC6E" transform="translate(354,209)"/>
<path d="M0 0 C2.0625 0.4375 2.0625 0.4375 4 1 C4.33 2.32 4.66 3.64 5 5 C3.35 5.33 1.7 5.66 0 6 C-0.38218767 4.34385343 -0.71395102 2.67542976 -1 1 C-0.67 0.67 -0.34 0.34 0 0 Z " fill="#BDAD6F" transform="translate(143,209)"/>
<path d="M0 0 C1.65 0.33 3.3 0.66 5 1 C4.6875 2.9375 4.6875 2.9375 4 5 C3.01 5.33 2.02 5.66 1 6 C0.34 5.67 -0.32 5.34 -1 5 C-0.67 3.35 -0.34 1.7 0 0 Z " fill="#F1EEE7" transform="translate(248,228)"/>
<path d="M0 0 C0.598125 0.350625 1.19625 0.70125 1.8125 1.0625 C1.8125 1.7225 1.8125 2.3825 1.8125 3.0625 C-0.1675 3.3925 -2.1475 3.7225 -4.1875 4.0625 C-4.5175 2.7425 -4.8475 1.4225 -5.1875 0.0625 C-2.1875 -0.9375 -2.1875 -0.9375 0 0 Z " fill="#616161" transform="translate(294.1875,346.9375)"/>
<path d="M0 0 C1.98 0 3.96 0 6 0 C5.67 2.31 5.34 4.62 5 7 C4.34 6.67 3.68 6.34 3 6 C3.33 5.01 3.66 4.02 4 3 C3.34 3 2.68 3 2 3 C2 3.66 2 4.32 2 5 C1.34 5 0.68 5 0 5 C0 3.35 0 1.7 0 0 Z " fill="#E3E3E3" transform="translate(344,241)"/>
<path d="M0 0 C1.32 0.66 2.64 1.32 4 2 C3.34 3.32 2.68 4.64 2 6 C0.68 5.34 -0.64 4.68 -2 4 C-1.34 2.68 -0.68 1.36 0 0 Z " fill="#F6F5F1" transform="translate(249,266)"/>
<path d="M0 0 C0.66 0 1.32 0 2 0 C2 2.31 2 4.62 2 7 C0.02 7.66 -1.96 8.32 -4 9 C-4.33 8.34 -4.66 7.68 -5 7 C-3.35 6.67 -1.7 6.34 0 6 C0 4.02 0 2.04 0 0 Z " fill="#F2F2F2" transform="translate(349,242)"/>
<path d="M0 0 C1.65 0.33 3.3 0.66 5 1 C4.67 2.32 4.34 3.64 4 5 C2.35 4.67 0.7 4.34 -1 4 C-0.67 2.68 -0.34 1.36 0 0 Z " fill="#626262" transform="translate(207,347)"/>
<path d="M0 0 C2.475 0.495 2.475 0.495 5 1 C4.67 2.32 4.34 3.64 4 5 C2.68 5 1.36 5 0 5 C0 3.35 0 1.7 0 0 Z " fill="#FBFAF8" transform="translate(231,257)"/>
<path d="M0 0 C1.65 0 3.3 0 5 0 C4.67 1.65 4.34 3.3 4 5 C2.68 4.67 1.36 4.34 0 4 C0 2.68 0 1.36 0 0 Z " fill="#FBFAF8" transform="translate(264,238)"/>
<path d="M0 0 C2.475 0.495 2.475 0.495 5 1 C4.67 2.32 4.34 3.64 4 5 C2.68 5 1.36 5 0 5 C0 3.35 0 1.7 0 0 Z " fill="#FBFAF8" transform="translate(231,238)"/>
<path d="M0 0 C0.99 0.33 1.98 0.66 3 1 C2.6875 2.9375 2.6875 2.9375 2 5 C1.01 5.33 0.02 5.66 -1 6 C-1.33 4.35 -1.66 2.7 -2 1 C-1.34 0.67 -0.68 0.34 0 0 Z " fill="#5F5F5F" transform="translate(309,337)"/>
<path d="M0 0 C1.98 0.495 1.98 0.495 4 1 C3.67 2.32 3.34 3.64 3 5 C1.68 5 0.36 5 -1 5 C-0.67 3.35 -0.34 1.7 0 0 Z " fill="#FDFCFB" transform="translate(265,257)"/>
<path d="M0 0 C1.9375 0.75 1.9375 0.75 4 2 C4.75 4.125 4.75 4.125 5 6 C3.35 5.67 1.7 5.34 0 5 C0 3.35 0 1.7 0 0 Z " fill="#626262" transform="translate(270,360)"/>
<path d="M0 0 C3.71599191 -0.20086443 4.77208445 -0.1519437 8 2 C8 3.32 8 4.64 8 6 C7.34 6 6.68 6 6 6 C5.67 5.34 5.34 4.68 5 4 C3.34051852 2.98812105 1.67419438 1.9873454 0 1 C0 0.67 0 0.34 0 0 Z " fill="#E6E6E6" transform="translate(249,352)"/>
<path d="M0 0 C0.33 1.32 0.66 2.64 1 4 C-0.98 4 -2.96 4 -5 4 C-5.33 3.01 -5.66 2.02 -6 1 C-4 0 -4 0 0 0 Z " fill="#E9E9E9" transform="translate(296,343)"/>
<path d="M0 0 C0.99 0.33 1.98 0.66 3 1 C2.67 2.65 2.34 4.3 2 6 C1.01 6 0.02 6 -1 6 C-1.33 4.35 -1.66 2.7 -2 1 C-1.34 0.67 -0.68 0.34 0 0 Z " fill="#E0E0E0" transform="translate(207,134)"/>
</svg>
